<svg width="32" height="32" viewBox="0 0 32 32" fill="none" xmlns="http://www.w3.org/2000/svg">
    <!-- Фон можна зробити прозорим або основним кольором -->
    <rect width="32" height="32" rx="6" fill="#103931"/>
    <!-- Або видалити цей rect для прозорого фону -->
    <!-- Символ: два об'єднаних кола (голови) + серце -->
    <circle cx="12" cy="16" r="5" fill="white"/>
    <circle cx="20" cy="16" r="5" fill="white"/>
    <!-- Серце між ними, як символ зв'язку -->
    <path d="M16 20C16 20 18 17.5 19 17C20 16.5 21 17 21 18C21 19 20 20 19 21C18 22 16 23 16 23C16 23 14 22 13 21C12 20 11 19 11 18C11 17 12 16.5 13 17C14 17.5 16 20 16 20Z" fill="#F03F3B"/>
    <!-- Або #FFB6C1 для ніжнішого -->
</svg>