т
<svg xmlns="http://www.w3.org/2000/svg" viewBox="0 0 64 64" aria-hidden="true">
    <rect x="10" y="10" width="64" height="64" rx="14" fill="#103931"/>
    <path d="M22 42V22h4l12 14V22h4v20h-4L26 28v14h-4Z" fill="#fbfbfb"/>
    <path d="M44.7 42.2c-4.1 0-7-2-7.2-5.6h4c.2 1.6 1.6 2.5 3.3 2.5 1.7 0 2.9-.8 2.9-2 0-1.3-1.6-1.8-3.8-2.3-3.1-.8-6-1.8-6-5.5 0-3.4 2.8-5.5 6.8-5.5 3.9 0 6.6 2 6.8 5.5h-4c-.2-1.4-1.4-2.3-2.9-2.3-1.5 0-2.6.7-2.6 1.8 0 1.2 1.3 1.6 3.4 2.1 3.2.8 6.4 1.8 6.4 5.7 0 3.5-2.8 5.6-7.1 5.6Z" fill="#2a6e5d"/>
</svg>