<svg aria-hidden="true" style="position: absolute; width: 0; height: 0; overflow: hidden;" version="1.1" xmlns="http://www.w3.org/2000/svg" xmlns:xlink="http://www.w3.org/1999/xlink">
  <defs>
    <symbol id="icon-star" viewBox="0 0 32 32">
      <path fill="#ffc531" style="fill: var(--color1, #ffc531); stroke: var(--color1, #ffc531)" stroke="#ffc531" stroke-linejoin="miter" stroke-linecap="butt" stroke-miterlimit="4" stroke-width="2.4" d="M19.6 9.395c0.318 0.603 0.898 1.024 1.57 1.141l7.6 1.313-5.375 5.535c-0.475 0.489-0.697 1.171-0.6 1.846l1.098 7.635-6.922-3.402-0.234-0.1c-0.476-0.169-0.996-0.169-1.473 0l-0.234 0.1-6.924 3.402 1.1-7.635c0.097-0.675-0.125-1.357-0.6-1.846l-5.377-5.535 7.602-1.313c0.672-0.116 1.252-0.538 1.57-1.141l3.6-6.822 3.6 6.822z"></path>
    </symbol>
    <symbol id="icon-Logo" viewBox="0 0 32 32">
      <path fill="#fbfbfb" style="fill: var(--color1, #fbfbfb)" d="M0.333 14.412h0.618l1.527 2.463h0.009v-2.463h0.557v3.344h-0.618l-1.522-2.459h-0.014v2.459h-0.557v-3.344zM5.595 17.218c0 0.066 0.008 0.112 0.023 0.14 0.019 0.028 0.053 0.042 0.103 0.042 0.016 0 0.034 0 0.056 0s0.047-0.003 0.075-0.009v0.37c-0.019 0.006-0.044 0.012-0.075 0.019-0.028 0.009-0.058 0.017-0.089 0.023s-0.062 0.011-0.094 0.014c-0.031 0.003-0.058 0.005-0.080 0.005-0.109 0-0.2-0.022-0.272-0.066s-0.119-0.12-0.141-0.229c-0.106 0.103-0.237 0.178-0.393 0.225-0.153 0.047-0.301 0.070-0.445 0.070-0.109 0-0.214-0.016-0.314-0.047-0.1-0.028-0.189-0.070-0.267-0.126-0.075-0.059-0.136-0.133-0.183-0.22-0.044-0.091-0.066-0.195-0.066-0.314 0-0.15 0.027-0.272 0.080-0.365 0.056-0.094 0.128-0.167 0.215-0.22 0.091-0.053 0.19-0.091 0.3-0.112 0.112-0.025 0.225-0.044 0.337-0.056 0.097-0.019 0.189-0.031 0.276-0.037 0.087-0.009 0.164-0.023 0.229-0.042 0.069-0.019 0.122-0.047 0.159-0.084 0.041-0.041 0.061-0.1 0.061-0.178 0-0.069-0.017-0.125-0.051-0.169-0.031-0.044-0.072-0.076-0.122-0.098-0.047-0.025-0.1-0.041-0.159-0.047-0.059-0.009-0.115-0.014-0.169-0.014-0.15 0-0.273 0.031-0.37 0.094s-0.151 0.159-0.164 0.29h-0.534c0.009-0.156 0.047-0.286 0.112-0.389s0.148-0.186 0.248-0.248c0.103-0.062 0.219-0.106 0.347-0.131s0.259-0.037 0.393-0.037c0.119 0 0.236 0.012 0.351 0.037s0.219 0.066 0.309 0.122c0.094 0.056 0.169 0.13 0.225 0.22 0.056 0.087 0.084 0.195 0.084 0.323v1.246zM5.061 16.543c-0.081 0.053-0.181 0.086-0.3 0.098-0.119 0.009-0.237 0.025-0.356 0.047-0.056 0.009-0.111 0.023-0.164 0.042-0.053 0.016-0.1 0.039-0.141 0.070-0.041 0.028-0.073 0.067-0.098 0.117-0.022 0.047-0.033 0.105-0.033 0.173 0 0.059 0.017 0.109 0.051 0.15s0.075 0.073 0.122 0.098c0.050 0.022 0.103 0.037 0.159 0.047 0.059 0.009 0.112 0.014 0.159 0.014 0.059 0 0.123-0.008 0.192-0.023s0.133-0.042 0.192-0.080c0.062-0.037 0.114-0.084 0.155-0.14 0.041-0.059 0.061-0.131 0.061-0.215v-0.398zM6.075 15.335h0.506v0.356l0.009 0.009c0.081-0.134 0.187-0.239 0.318-0.314 0.131-0.078 0.276-0.117 0.436-0.117 0.265 0 0.475 0.069 0.628 0.206s0.229 0.343 0.229 0.618v1.662h-0.534v-1.522c-0.006-0.19-0.047-0.328-0.122-0.412-0.075-0.087-0.192-0.131-0.351-0.131-0.091 0-0.172 0.017-0.244 0.052-0.072 0.031-0.133 0.076-0.183 0.136-0.050 0.056-0.089 0.123-0.117 0.201s-0.042 0.161-0.042 0.248v1.428h-0.534v-2.421zM8.671 15.335h0.506v0.356l0.009 0.009c0.081-0.134 0.187-0.239 0.318-0.314 0.131-0.078 0.276-0.117 0.435-0.117 0.265 0 0.475 0.069 0.627 0.206s0.229 0.343 0.229 0.618v1.662h-0.534v-1.522c-0.006-0.19-0.047-0.328-0.122-0.412-0.075-0.087-0.192-0.131-0.351-0.131-0.091 0-0.172 0.017-0.243 0.052-0.072 0.031-0.133 0.076-0.183 0.136-0.050 0.056-0.089 0.123-0.117 0.201s-0.042 0.161-0.042 0.248v1.428h-0.534v-2.421zM10.999 15.335h0.585l0.632 1.808h0.009l0.613-1.808h0.557l-0.941 2.552c-0.044 0.109-0.087 0.214-0.131 0.314-0.041 0.1-0.092 0.187-0.155 0.262-0.059 0.078-0.134 0.139-0.225 0.183-0.091 0.047-0.206 0.070-0.347 0.070-0.125 0-0.248-0.009-0.37-0.028v-0.45c0.044 0.006 0.086 0.012 0.126 0.019 0.041 0.009 0.083 0.014 0.126 0.014 0.062 0 0.114-0.008 0.155-0.023s0.073-0.039 0.098-0.070c0.028-0.028 0.052-0.062 0.070-0.103s0.036-0.087 0.052-0.14l0.061-0.187-0.918-2.412zM13.213 17.124h0.651v0.632h-0.651v-0.632zM14.84 16.642c0 0.128 0.022 0.237 0.066 0.328s0.105 0.165 0.183 0.225c0.078 0.056 0.167 0.098 0.267 0.126 0.103 0.025 0.214 0.037 0.332 0.037 0.128 0 0.237-0.014 0.328-0.042 0.091-0.031 0.164-0.070 0.22-0.117s0.097-0.1 0.122-0.159c0.025-0.062 0.037-0.125 0.037-0.187 0-0.128-0.030-0.222-0.089-0.281-0.056-0.062-0.119-0.106-0.187-0.131-0.119-0.044-0.258-0.084-0.417-0.122-0.156-0.041-0.35-0.092-0.581-0.155-0.144-0.037-0.264-0.086-0.361-0.145-0.094-0.062-0.169-0.131-0.225-0.206s-0.097-0.155-0.122-0.239c-0.022-0.084-0.033-0.17-0.033-0.258 0-0.169 0.034-0.314 0.103-0.435 0.072-0.125 0.165-0.228 0.281-0.309s0.247-0.14 0.393-0.178c0.147-0.041 0.295-0.061 0.445-0.061 0.175 0 0.339 0.023 0.492 0.070 0.156 0.044 0.292 0.111 0.407 0.201 0.119 0.091 0.212 0.203 0.281 0.337 0.069 0.131 0.103 0.284 0.103 0.459h-0.585c-0.016-0.215-0.089-0.367-0.22-0.454-0.131-0.091-0.298-0.136-0.501-0.136-0.069 0-0.139 0.008-0.211 0.023-0.072 0.012-0.137 0.036-0.197 0.070-0.059 0.031-0.109 0.075-0.15 0.131-0.037 0.056-0.056 0.126-0.056 0.211 0 0.119 0.036 0.212 0.108 0.281 0.075 0.066 0.172 0.116 0.29 0.15 0.012 0.003 0.061 0.017 0.145 0.042 0.087 0.022 0.184 0.047 0.29 0.075s0.209 0.056 0.309 0.084c0.103 0.025 0.176 0.044 0.22 0.056 0.109 0.034 0.204 0.081 0.286 0.141s0.148 0.128 0.201 0.206c0.056 0.075 0.097 0.156 0.122 0.244 0.028 0.087 0.042 0.175 0.042 0.262 0 0.187-0.039 0.348-0.117 0.482-0.075 0.131-0.175 0.239-0.3 0.323s-0.267 0.145-0.426 0.183c-0.159 0.041-0.322 0.061-0.487 0.061-0.19 0-0.37-0.023-0.539-0.070s-0.315-0.119-0.44-0.215c-0.125-0.097-0.225-0.22-0.3-0.37-0.075-0.153-0.114-0.332-0.117-0.539h0.585zM18.986 16.332c-0.006-0.084-0.025-0.165-0.056-0.244-0.028-0.078-0.069-0.145-0.122-0.201-0.050-0.059-0.112-0.106-0.187-0.14-0.072-0.037-0.153-0.056-0.244-0.056-0.094 0-0.18 0.017-0.258 0.052-0.075 0.031-0.14 0.076-0.197 0.136-0.053 0.056-0.097 0.123-0.131 0.201-0.031 0.078-0.048 0.162-0.052 0.253h1.246zM17.74 16.684c0 0.094 0.012 0.184 0.037 0.272 0.028 0.087 0.069 0.164 0.122 0.229s0.12 0.119 0.201 0.159c0.081 0.037 0.178 0.056 0.29 0.056 0.156 0 0.281-0.033 0.375-0.098 0.097-0.069 0.169-0.17 0.215-0.304h0.506c-0.028 0.131-0.076 0.248-0.145 0.351s-0.151 0.19-0.248 0.262c-0.097 0.069-0.206 0.12-0.328 0.155-0.119 0.037-0.244 0.056-0.375 0.056-0.19 0-0.359-0.031-0.506-0.094s-0.272-0.15-0.375-0.262c-0.1-0.112-0.176-0.247-0.229-0.403-0.050-0.156-0.075-0.328-0.075-0.515 0-0.172 0.027-0.334 0.080-0.487 0.056-0.156 0.134-0.292 0.234-0.407 0.103-0.119 0.226-0.212 0.37-0.281s0.306-0.103 0.487-0.103c0.19 0 0.361 0.041 0.51 0.122 0.153 0.078 0.279 0.183 0.379 0.314s0.172 0.283 0.215 0.454c0.047 0.169 0.059 0.343 0.037 0.524h-1.779zM19.832 15.335h0.501v0.468h0.009c0.016-0.066 0.045-0.13 0.089-0.192 0.047-0.062 0.101-0.119 0.164-0.169 0.066-0.053 0.137-0.095 0.215-0.126s0.158-0.047 0.239-0.047c0.062 0 0.105 0.002 0.126 0.005 0.025 0.003 0.050 0.006 0.075 0.009v0.515c-0.037-0.006-0.076-0.011-0.117-0.014-0.037-0.006-0.075-0.009-0.112-0.009-0.091 0-0.176 0.019-0.258 0.056-0.078 0.034-0.147 0.087-0.206 0.159-0.059 0.069-0.106 0.155-0.14 0.258s-0.052 0.222-0.052 0.356v1.152h-0.534v-2.421zM21.146 15.335h0.581l0.613 1.859h0.009l0.59-1.859h0.553l-0.866 2.421h-0.599l-0.88-2.421zM23.733 14.412h0.534v0.506h-0.534v-0.506zM23.733 15.335h0.534v2.421h-0.534v-2.421zM26.39 16.145c-0.022-0.15-0.083-0.262-0.183-0.337-0.097-0.078-0.22-0.117-0.37-0.117-0.069 0-0.142 0.012-0.22 0.037-0.078 0.022-0.15 0.066-0.215 0.131-0.066 0.062-0.12 0.151-0.164 0.267-0.044 0.112-0.066 0.261-0.066 0.445 0 0.1 0.011 0.2 0.033 0.3 0.025 0.1 0.062 0.189 0.112 0.267 0.053 0.078 0.12 0.142 0.201 0.192 0.081 0.047 0.18 0.070 0.295 0.070 0.156 0 0.284-0.048 0.384-0.145 0.103-0.097 0.167-0.233 0.192-0.407h0.534c-0.050 0.315-0.17 0.557-0.361 0.726-0.187 0.165-0.437 0.248-0.749 0.248-0.19 0-0.359-0.031-0.506-0.094-0.144-0.066-0.265-0.153-0.365-0.262-0.1-0.112-0.176-0.245-0.229-0.398-0.050-0.153-0.075-0.318-0.075-0.496 0-0.181 0.025-0.351 0.075-0.51s0.125-0.297 0.225-0.412c0.1-0.119 0.223-0.211 0.37-0.276 0.15-0.069 0.325-0.103 0.524-0.103 0.14 0 0.273 0.019 0.398 0.056 0.128 0.034 0.24 0.087 0.337 0.159 0.1 0.072 0.181 0.162 0.244 0.272s0.1 0.239 0.112 0.389h-0.534zM28.926 16.332c-0.006-0.084-0.025-0.165-0.056-0.244-0.028-0.078-0.069-0.145-0.122-0.201-0.050-0.059-0.112-0.106-0.187-0.14-0.072-0.037-0.153-0.056-0.244-0.056-0.094 0-0.18 0.017-0.258 0.052-0.075 0.031-0.14 0.076-0.197 0.136-0.053 0.056-0.097 0.123-0.131 0.201-0.031 0.078-0.048 0.162-0.052 0.253h1.246zM27.681 16.684c0 0.094 0.012 0.184 0.037 0.272 0.028 0.087 0.069 0.164 0.122 0.229s0.12 0.119 0.201 0.159c0.081 0.037 0.178 0.056 0.29 0.056 0.156 0 0.281-0.033 0.375-0.098 0.097-0.069 0.169-0.17 0.215-0.304h0.506c-0.028 0.131-0.076 0.248-0.145 0.351s-0.151 0.19-0.248 0.262c-0.097 0.069-0.206 0.12-0.328 0.155-0.119 0.037-0.244 0.056-0.375 0.056-0.19 0-0.359-0.031-0.506-0.094s-0.272-0.15-0.375-0.262c-0.1-0.112-0.176-0.247-0.229-0.403-0.050-0.156-0.075-0.328-0.075-0.515 0-0.172 0.027-0.334 0.080-0.487 0.056-0.156 0.134-0.292 0.234-0.407 0.103-0.119 0.226-0.212 0.37-0.281s0.306-0.103 0.487-0.103c0.19 0 0.361 0.041 0.51 0.122 0.153 0.078 0.279 0.183 0.379 0.314s0.172 0.283 0.215 0.454c0.047 0.169 0.059 0.343 0.037 0.524h-1.779zM30.175 16.979c0.016 0.156 0.075 0.265 0.178 0.328s0.226 0.094 0.37 0.094c0.050 0 0.106-0.003 0.169-0.009 0.066-0.009 0.126-0.025 0.183-0.047s0.101-0.053 0.136-0.094c0.037-0.044 0.055-0.1 0.052-0.169s-0.028-0.125-0.075-0.169c-0.047-0.044-0.108-0.078-0.183-0.103-0.072-0.028-0.155-0.052-0.248-0.070s-0.189-0.039-0.286-0.061c-0.1-0.022-0.197-0.048-0.29-0.080-0.091-0.031-0.173-0.073-0.248-0.126-0.072-0.053-0.13-0.12-0.173-0.201-0.044-0.084-0.066-0.187-0.066-0.309 0-0.131 0.031-0.24 0.094-0.328 0.066-0.091 0.147-0.162 0.244-0.215 0.1-0.056 0.209-0.095 0.328-0.117 0.122-0.022 0.237-0.033 0.347-0.033 0.125 0 0.244 0.014 0.356 0.042 0.116 0.025 0.219 0.067 0.309 0.126 0.094 0.059 0.17 0.137 0.229 0.234 0.062 0.094 0.101 0.208 0.117 0.342h-0.557c-0.025-0.128-0.084-0.214-0.178-0.258-0.091-0.044-0.195-0.066-0.314-0.066-0.037 0-0.083 0.003-0.136 0.009-0.050 0.006-0.098 0.019-0.145 0.037-0.044 0.016-0.081 0.041-0.112 0.075-0.031 0.031-0.047 0.073-0.047 0.126 0 0.066 0.022 0.119 0.066 0.159 0.047 0.041 0.106 0.075 0.178 0.103 0.075 0.025 0.159 0.047 0.253 0.066s0.19 0.039 0.29 0.061c0.097 0.022 0.192 0.048 0.286 0.080s0.176 0.073 0.248 0.126c0.075 0.053 0.134 0.12 0.178 0.201 0.047 0.081 0.070 0.181 0.070 0.3 0 0.144-0.033 0.265-0.098 0.365s-0.151 0.181-0.258 0.244c-0.103 0.062-0.219 0.108-0.347 0.136s-0.254 0.042-0.379 0.042c-0.153 0-0.295-0.017-0.426-0.052-0.128-0.034-0.24-0.086-0.337-0.155-0.094-0.072-0.169-0.159-0.225-0.262-0.053-0.106-0.081-0.231-0.084-0.375h0.534z"></path>
    </symbol>
    <symbol id="icon-chevron-down" viewBox="0 0 32 32">
      <path fill="none" stroke="#fbfbfb" style="stroke: var(--color1, #fbfbfb)" stroke-linejoin="round" stroke-linecap="round" stroke-miterlimit="4" stroke-width="3.2" d="M8 12l8 8 8-8"></path>
    </symbol>
    <symbol id="icon-eye-off" viewBox="0 0 32 32">
      <path stroke-linejoin="round" stroke-linecap="round" stroke-miterlimit="4" stroke-width="3.2" d="M23.92 23.92c-2.279 1.737-5.055 2.7-7.92 2.747-9.333 0-14.667-10.667-14.667-10.667 1.659-3.091 3.959-5.791 6.747-7.92M13.2 5.653c0.918-0.215 1.857-0.322 2.8-0.32 9.333 0 14.667 10.667 14.667 10.667-0.809 1.514-1.775 2.94-2.88 4.253M18.827 18.827c-0.366 0.393-0.808 0.708-1.298 0.927s-1.020 0.336-1.557 0.346-1.071-0.089-1.569-0.291c-0.498-0.201-0.95-0.5-1.33-0.88s-0.679-0.832-0.88-1.33c-0.201-0.498-0.3-1.032-0.29-1.569s0.127-1.067 0.346-1.557 0.534-0.932 0.927-1.298"></path>
      <path stroke-linejoin="round" stroke-linecap="round" stroke-miterlimit="4" stroke-width="3.2" d="M1.333 1.333l29.333 29.333"></path>
    </symbol>
    <symbol id="icon-eye" viewBox="0 0 32 32">
      <path stroke-linejoin="round" stroke-linecap="round" stroke-miterlimit="4" stroke-width="3.2" d="M1.333 16c0 0 5.333-10.667 14.667-10.667s14.667 10.667 14.667 10.667c0 0-5.333 10.667-14.667 10.667s-14.667-10.667-14.667-10.667z"></path>
      <path stroke-linejoin="round" stroke-linecap="round" stroke-miterlimit="4" stroke-width="3.2" d="M16 20c2.209 0 4-1.791 4-4s-1.791-4-4-4c-2.209 0-4 1.791-4 4s1.791 4 4 4z"></path>
    </symbol>
    <symbol id="icon-fe_check" viewBox="0 0 32 32">
      <path fill="#fbfbfb" style="fill: var(--color1, #fbfbfb)" d="M8 13.333l-2.667 2.667 8 8 13.333-13.333-2.667-2.667-10.667 10.667-5.333-5.333z"></path>
    </symbol>
    <symbol id="icon-image-5" viewBox="0 0 32 32">
      <path d="M16 0c8.837 0 16 7.163 16 16s-7.163 16-16 16c-8.837 0-16-7.163-16-16s7.163-16 16-16z"></path>
    </symbol>
    <symbol id="icon-image" viewBox="0 0 32 32">
      <path fill="#fbfbfb" style="fill: var(--color1, #fbfbfb)" d="M8 0h16c4.418 0 8 3.582 8 8v16c0 4.418-3.582 8-8 8h-16c-4.418 0-8-3.582-8-8v-16c0-4.418 3.582-8 8-8z"></path>
      <path fill="#103931" style="fill: var(--color2, #103931)" d="M16 9.6c0.849 0 1.663 0.337 2.263 0.937s0.937 1.414 0.937 2.263-0.337 1.663-0.937 2.263c-0.6 0.6-1.414 0.937-2.263 0.937s-1.663-0.337-2.263-0.937c-0.6-0.6-0.937-1.414-0.937-2.263s0.337-1.663 0.937-2.263c0.6-0.6 1.414-0.937 2.263-0.937zM16 17.6c3.536 0 6.4 1.432 6.4 3.2v1.6h-12.8v-1.6c0-1.768 2.864-3.2 6.4-3.2z"></path>
    </symbol>
    <symbol id="icon-Location" viewBox="0 0 32 32">
      <path d="M23.061 16.762c-0.982 1.991-2.314 3.975-3.675 5.756-1.293 1.678-2.673 3.287-4.136 4.819-1.463-1.532-2.844-3.141-4.136-4.819-1.361-1.781-2.692-3.765-3.675-5.756-0.994-2.012-1.564-3.896-1.564-5.512 0-2.486 0.988-4.871 2.746-6.629s4.143-2.746 6.629-2.746c2.486 0 4.871 0.988 6.629 2.746s2.746 4.143 2.746 6.629c0 1.616-0.572 3.501-1.564 5.512zM15.25 30c0 0 11.25-10.661 11.25-18.75 0-2.984-1.185-5.845-3.295-7.955s-4.971-3.295-7.955-3.295c-2.984 0-5.845 1.185-7.955 3.295s-3.295 4.971-3.295 7.955c0 8.089 11.25 18.75 11.25 18.75z"></path>
      <path d="M15.25 15c-0.995 0-1.948-0.395-2.652-1.098s-1.098-1.657-1.098-2.652c0-0.995 0.395-1.948 1.098-2.652s1.657-1.098 2.652-1.098c0.995 0 1.948 0.395 2.652 1.098s1.098 1.657 1.098 2.652c0 0.995-0.395 1.948-1.098 2.652s-1.657 1.098-2.652 1.098zM15.25 16.875c1.492 0 2.923-0.593 3.977-1.648s1.648-2.486 1.648-3.977c0-1.492-0.593-2.923-1.648-3.977s-2.486-1.648-3.977-1.648c-1.492 0-2.923 0.593-3.977 1.648s-1.648 2.486-1.648 3.977c0 1.492 0.593 2.923 1.648 3.977s2.486 1.648 3.977 1.648z"></path>
    </symbol>
    <symbol id="icon-map-pin" viewBox="0 0 32 32">
      <path stroke-linejoin="round" stroke-linecap="round" stroke-miterlimit="4" stroke-width="3" d="M28 13.333c0 9.333-12 17.333-12 17.333s-12-8-12-17.333c0-3.183 1.264-6.235 3.515-8.485s5.303-3.515 8.485-3.515c3.183 0 6.235 1.264 8.485 3.515s3.515 5.303 3.515 8.485z"></path>
      <path stroke-linejoin="round" stroke-linecap="round" stroke-miterlimit="4" stroke-width="3" d="M16 17.333c2.209 0 4-1.791 4-4s-1.791-4-4-4c-2.209 0-4 1.791-4 4s1.791 4 4 4z"></path>
    </symbol>
    <symbol id="icon-Property-heart1Default" viewBox="0 0 32 32">
      <path fill="#11101c" style="fill: var(--color2, #11101c)" d="M16 5.496l-1.434-1.474c-3.366-3.46-9.538-2.266-11.766 2.084-1.046 2.046-1.282 5 0.628 8.77 1.84 3.63 5.668 7.978 12.572 12.714 6.904-4.736 10.73-9.084 12.572-12.714 1.91-3.772 1.676-6.724 0.628-8.77-2.228-4.35-8.4-5.546-11.766-2.086l-1.434 1.476zM16 30c-30.666-20.264-9.442-36.080-0.352-27.714 0.12 0.111 0.237 0.225 0.352 0.342 0.113-0.118 0.23-0.232 0.352-0.34 9.088-8.372 30.314 7.446-0.352 27.712z"></path>
    </symbol>
    <symbol id="icon-Property-heartActive" viewBox="0 0 32 32">
      <path fill="#103931" style="fill: var(--color1, #103931)" d="M16 2.628c8.876-9.124 31.068 6.842 0 27.372-31.068-20.528-8.876-36.496 0-27.372z"></path>
    </symbol>
    <symbol id="icon-x" viewBox="0 0 32 32">
      <path stroke-linejoin="round" stroke-linecap="round" stroke-miterlimit="4" stroke-width="2.5" d="M24 8l-16 16"></path>
      <path stroke-linejoin="round" stroke-linecap="round" stroke-miterlimit="4" stroke-width="2.5" d="M8 8l16 16"></path>
    </symbol>
  </defs>
</svg>